Coordinates
version=1
nRows=10
nColumns=23
inDegrees=yes

Units are S.I. units (second, meters, Newtons, ...)
If the header above contains a line with 'inDegrees', this indicates whether rotational values are in degrees (yes) or radians (no).

endheader
time	pelvis_tilt	pelvis_list	pelvis_rotation	pelvis_tx	pelvis_ty	pelvis_tz	hip_flexion_r	hip_adduction_r	hip_rotation_r	knee_angle_r	knee_angle_r_beta	ankle_angle_r	subtalar_angle_r	mtp_angle_r	hip_flexion_l	hip_adduction_l	hip_rotation_l	knee_angle_l	knee_angle_l_beta	ankle_angle_l	subtalar_angle_l	mtp_angle_l
      0.00000000	    -11.39025860	      2.13011535	      5.09651248	      2.31193464	      0.92066245	      1.05138465	     32.53152705	     -9.56291939	     -6.71845548	     90.80308695	      1.58481284	      0.27060152	     -4.47119649	      0.00000000	     12.73474933	      4.79585238	     -3.57647877	     31.95694481	      0.55775391	     26.70640829	      9.26083097	      0.00000000
      0.00666667	    -11.89501052	      1.85977488	      5.05872035	      2.31216603	      0.92477262	      1.05149664	     34.58869749	     -9.10325655	     -6.70650303	     88.96368641	      1.55270924	      0.81701022	     -5.01218146	      0.00000000	     10.84598141	      4.30753724	     -4.15305747	     29.98536571	      0.52334336	     24.83339590	     10.38465799	      0.00000000
      0.01333333	    -11.82189843	      1.26899620	      4.93120525	      2.31293896	      0.92978155	      1.05175691	     35.73246609	     -8.10538125	     -6.78641148	     86.69008108	      1.51302734	      1.25993748	     -5.93151273	      0.00000000	      8.14573925	      3.57802789	     -4.22756700	     27.50671127	      0.48008268	     22.59610104	     10.59024907	      0.00000000
      0.02000000	    -11.58090270	      0.48355294	      5.13700746	      2.31403423	      0.93499565	      1.05141207	     36.37235456	     -7.19968346	     -7.36311591	     84.10916150	      1.46798180	      1.78965108	     -6.55957395	      0.00000000	      5.24778657	      2.78563238	     -3.62290862	     24.82100870	      0.43320833	     19.63552571	     10.09610535	      0.00000000
      0.02666667	    -11.51770646	     -0.21779530	      5.21710447	      2.31510161	      0.93979259	      1.05125994	     37.13720262	     -6.29047228	     -7.75097227	     81.40053285	      1.42070731	      2.28190365	     -7.30789594	      0.00000000	      2.58079654	      2.08138161	     -3.13639666	     22.09324939	      0.38559994	     16.32726531	      9.38195545	      0.00000000
      0.03333333	    -11.39333163	     -0.96049864	      5.32225584	      2.31625912	      0.94457673	      1.05106087	     37.68756569	     -5.38065185	     -8.22193648	     78.46413915	      1.36945757	      2.72642158	     -8.00657481	      0.00000000	     -0.06304333	      1.33199530	     -2.60683978	     19.40067505	      0.33860566	     12.59906565	      8.39136957	      0.00000000
      0.04000000	    -11.40351331	     -1.67715695	      5.36270345	      2.31738034	      0.94903724	      1.05102095	     38.28582732	     -4.45696395	     -8.61079530	     75.33404877	      1.31482719	      3.06533496	     -8.81863897	      0.00000000	     -2.35242027	      0.56734706	     -2.39571971	     17.02186247	      0.29708754	      8.67964536	      7.52436610	      0.00000000
      0.04666667	    -12.38804332	     -2.05178039	      5.33943224	      2.31786725	      0.95186545	      1.05106445	     39.99733900	     -4.00165232	     -8.77958052	     72.31604504	      1.26215309	      3.61927046	     -9.01996164	      0.00000000	     -3.00771095	      0.09750717	     -3.18957665	     15.80015567	      0.27576474	      5.19320526	      7.88730856	      0.00000000
      0.05333333	    -11.61144147	     -2.95530322	      5.39106675	      2.31962350	      0.95737642	      1.05099446	     39.30368466	     -2.83124368	     -9.35339909	     68.43181180	      1.19436043	      3.70224918	     -9.90912094	      0.00000000	     -6.04089831	     -0.85750336	     -2.70588181	     13.37336520	      0.23340925	      0.58573895	      5.87634225	      0.00000000
      0.06000000	    -12.65023034	     -3.08621381	      5.38542995	      2.32015922	      0.95987573	      1.05099655	     40.78751521	     -2.69817492	     -9.51520460	     65.00985232	      1.13463597	      4.30479403	     -9.79514854	      0.00000000	     -6.15996292	     -1.08560561	     -3.83971457	     12.98444305	      0.22662128	     -2.92632381	      6.13983418	      0.00000000
